<svg width="63" height="70" viewBox="0 0 63 70" fill="none" xmlns="http://www.w3.org/2000/svg">
<path d="M53.94 11.49C58.84 14.37 62.68 16.19 62.71 21.3C62.79 34.0267 62.8 42.4267 62.74 46.5C62.6866 50.4067 60.9766 53.37 57.61 55.39C46.7166 61.93 38.7566 66.3867 33.73 68.76C32.37 69.4 29.53 68.9 27.97 68.07C18.4566 63.01 10.6466 58.5634 4.54 54.73C1.07996 52.57 0.359961 49.3201 0.279961 45.1101C0.133291 36.2967 0.156631 28.4034 0.349961 21.43C0.436631 18.2167 1.86996 15.7834 4.65 14.13C10.5366 10.6234 16.4733 7.2134 22.46 3.90005C27.8 0.940048 30.79 -1.37995 36.09 1.47005C42.11 4.70338 48.06 8.0434 53.94 11.49ZM31.04 14.37C31.1892 14.4552 31.3574 14.5 31.5276 14.5C31.6979 14.5 31.8643 14.4552 32.01 14.37L38.54 10.68C38.612 10.6394 38.6721 10.5803 38.7141 10.509C38.756 10.4377 38.7781 10.3568 38.7781 10.2748C38.7781 10.1929 38.756 10.1129 38.7141 10.0435C38.6721 9.974 38.612 9.9175 38.54 9.88L31.96 6.30005C31.8217 6.22675 31.667 6.18927 31.5099 6.19102C31.3528 6.19276 31.1981 6.23367 31.06 6.31005L24.53 9.93C24.0833 10.1834 24.0833 10.4367 24.53 10.69L31.04 14.37ZM10.3 18.68L30.97 30.58C31.35 30.8 31.73 30.8 32.11 30.58L52.61 18.73C52.6739 18.6931 52.7273 18.6401 52.7648 18.5765C52.8023 18.5129 52.8226 18.441 52.8236 18.3679C52.8246 18.2949 52.8063 18.2233 52.7706 18.1605C52.7348 18.0976 52.6829 18.0457 52.62 18.01L45.89 14.09C45.7624 14.0143 45.6175 13.9735 45.47 13.9717C45.3224 13.97 45.1775 14.0073 45.05 14.08L33.19 20.92C32.6818 21.2121 32.1053 21.3658 31.5176 21.3658C30.93 21.3658 30.3516 21.2121 29.84 20.92L18.08 14.14C17.7466 13.9467 17.4166 13.9434 17.09 14.13L10.3 18.02C9.92 18.24 9.92 18.46 10.3 18.68ZM27.99 36.1101L7.04 23.96C6.68 23.7534 6.5 23.8567 6.5 24.27V32.2401C6.4996 32.3738 6.5346 32.5052 6.6013 32.6211C6.668 32.737 6.7642 32.8332 6.88 32.9001L18.84 39.84C19.3446 40.1315 19.7636 40.551 20.055 41.0566C20.3464 41.5621 20.4999 42.1358 20.5 42.7201V56.2201C20.5 56.3811 20.5416 56.5389 20.6206 56.6776C20.6996 56.8162 20.8132 56.9309 20.95 57.01L27.76 60.9701C27.8397 61.0161 27.9303 61.0402 28.0224 61.0398C28.1145 61.0393 28.2049 61.0145 28.2842 60.9677C28.3635 60.9209 28.429 60.8539 28.474 60.7735C28.5189 60.693 28.5417 60.6021 28.54 60.51L28.41 36.82C28.41 36.5 28.27 36.2634 27.99 36.1101ZM34.6 36.9701L34.67 60.9001C34.67 61.2001 34.8 61.2734 35.06 61.1201L41.78 57.2201C41.9993 57.0922 42.1812 56.9085 42.3076 56.6874C42.4339 56.4663 42.5003 56.2155 42.5 55.96V42.53C42.5 42.016 42.6349 41.5109 42.891 41.0652C43.1472 40.6196 43.5158 40.2488 43.96 39.9901L56.13 32.87C56.3766 32.7234 56.5 32.5067 56.5 32.2201V24.49C56.5 23.9367 56.26 23.8 55.78 24.08L35.1 36.1C34.9481 36.1878 34.822 36.3143 34.7343 36.467C34.6465 36.6197 34.6002 36.7932 34.6 36.9701ZM6.56 48.4901C6.5606 48.5401 6.5737 48.5892 6.5982 48.6328C6.6226 48.6765 6.6576 48.7134 6.7 48.7401L13.85 53.09C13.8956 53.1164 13.9473 53.1302 14 53.1302C14.0527 53.1302 14.1044 53.1164 14.15 53.09C14.1957 53.0636 14.2335 53.0258 14.2598 52.9801C14.2862 52.9345 14.3 52.8827 14.3 52.8301L14.22 44.5401C14.22 44.4874 14.2061 44.4356 14.1798 44.3899C14.1535 44.3443 14.1156 44.3064 14.07 44.28L6.86 40.1C6.8143 40.0737 6.7626 40.0598 6.7099 40.0599C6.6572 40.0599 6.6055 40.0737 6.5599 40.1001C6.5143 40.1265 6.4764 40.1644 6.4501 40.21C6.4238 40.2556 6.4099 40.3074 6.41 40.3601L6.56 48.4901ZM48.64 52.9501C48.6399 52.9855 48.6488 53.0204 48.6659 53.0514C48.683 53.0825 48.7077 53.1088 48.7376 53.1277C48.7676 53.1467 48.8018 53.1578 48.8372 53.1599C48.8726 53.1621 48.9079 53.1552 48.94 53.14C56.33 49.33 56.56 49.2001 56.57 40.5801C56.5686 40.5092 56.5489 40.44 56.5128 40.379C56.4768 40.3181 56.4255 40.2675 56.3641 40.2323C56.3027 40.197 56.2331 40.1783 56.1623 40.1779C56.0915 40.1775 56.0218 40.1955 55.96 40.23L49.26 44.14C48.96 44.3134 48.8066 44.5734 48.8 44.92L48.64 52.9501Z" fill="#F7F9F7"/>
</svg>
